<svg id="Layer_1" data-name="Layer 1" xmlns="http://www.w3.org/2000/svg" viewBox="0 0 150 150"><defs><style>.cls-1{fill:none;}.cls-2{fill:#ffc72c;}</style></defs><g id="Layer_2" data-name="Layer 2"><path class="cls-1" d="M0,0H150V150H0Z" transform="translate(0 0)"/></g><path class="cls-2" d="M93.91,66.63c-4.09-2.52-.08-6.32,3.75-6.32,6.14,0,11.71,5.36,11.71,5.36s-10.63,3.94-15.46,1m-57.1,53.43C22.6,123.85,26.4,92.69,44.43,67.79c18.36-25.4,32.75-33,32.75-33C74.09,71.84,51.94,116,36.81,120.06M125.28,19.38c-9-4.31-21.82-2.15-33.45,2.12l-.08,0C92.64,5.4,90.19.72,90.19.72L76.88,4.44s1.75,9.29.89,23.72c-34.57,20-57.88,53.46-64.31,76-7,24.53,12.53,32.82,29,20.78C83,95.11,91.23,27.34,91.23,27.34c12.27-3.72,22-1.75,27.7,3.2C133.31,42.91,114.65,62,114.65,62a21.76,21.76,0,0,0-13.9-6.47c-14.5-1.3-21.94,16.17-2.6,18,3.19.3,11.74-.93,14.94-2.49,3.24,6,2.23,33.61-16.43,41.79-16.77,7.36-23-3-23-3-.55,0-9.07,11.23-8.55,12.27,0,0,8.93,13.27,28.41,7.58,15.35-4.46,22.75-17.88,26.69-27.51,6.54-16,1.82-30.11-.74-33.83,25.57-17.84,21.82-42.08,5.83-49" transform="translate(0 0)"/></svg>